<svg xmlns="http://www.w3.org/2000/svg" viewBox="0 0 16 16">
  <path id="logo" fill="currentColor" d="M1.1 0h13.8L8 3.4m0 1.2-8-4v6.9h16V.6m0 7.9H0v6.9l8-4 8 4m-1.1.6L8 12.6 1.1 16"/>
  <path id="feed" fill="currentColor" d="M14 1a1 1 0 0 1 1 1v12a1 1 0 0 1-1 1H2a1 1 0 0 1-1-1V2a1 1 0 0 1 1-1zM2 0a2 2 0 0 0-2 2v12a2 2 0 0 0 2 2h12a2 2 0 0 0 2-2V2a2 2 0 0 0-2-2zM5.5 12a1.5 1.5 0 1 1-3 0 1.5 1.5 0 0 1 3 0m-3-8.5a1 1 0 0 1 1-1c5.523 0 10 4.477 10 10a1 1 0 1 1-2 0 8 8 0 0 0-8-8 1 1 0 0 1-1-1m0 4a1 1 0 0 1 1-1 6 6 0 0 1 6 6 1 1 0 1 1-2 0 4 4 0 0 0-4-4 1 1 0 0 1-1-1"/>
  <path id="share" fill="currentColor" d="M11 2.5a2.5 2.5 0 1 1 .603 1.628l-6.718 3.12a2.5 2.5 0 0 1 0 1.504l6.718 3.12a2.5 2.5 0 1 1-.488.876l-6.718-3.12a2.5 2.5 0 1 1 0-3.256l6.718-3.12A2.5 2.5 0 0 1 11 2.5"/>
  <path id="close" fill="currentColor" d="M2.146 2.854a.5.5 0 1 1 .708-.708L8 7.293l5.146-5.147a.5.5 0 0 1 .708.708L8.707 8l5.147 5.146a.5.5 0 0 1-.708.708L8 8.707l-5.146 5.147a.5.5 0 0 1-.708-.708L7.293 8z"/>
</svg>