<?xml version="1.0" encoding="UTF-8"?>
<svg xmlns="http://www.w3.org/2000/svg" viewBox="0 0 16 16" width="16" height="16" fill="currentColor">
  <path id="rss" d="M12.56,0H3.44C1.54,0,0,1.54,0,3.44v9.12c0,1.9,1.54,3.44,3.44,3.44h9.12c1.9,0,3.44-1.54,3.44-3.44V3.44c0-1.9-1.54-3.44-3.44-3.44ZM4.25,13.31c-.83,0-1.5-.67-1.5-1.5s.67-1.5,1.5-1.5,1.5.67,1.5,1.5-.67,1.5-1.5,1.5ZM7.88,13.31c0-2.83-2.29-5.12-5.12-5.12v-2.12c4,0,7.25,3.25,7.25,7.25h-2.12ZM11.5,13.31c0-4.83-3.92-8.75-8.75-8.75v-2.19c6.04,0,10.94,4.9,10.94,10.94h-2.19Z" />
</svg>