<svg xmlns="http://www.w3.org/2000/svg" viewBox="0 0 16 16" fill="currentColor">
  <symbol id="logo">
    <path d="M0 0h16v16H0"/>
  </symbol>
  <path id="feed" fill="currentColor" d="M14 1a1 1 0 0 1 1 1v12a1 1 0 0 1-1 1H2a1 1 0 0 1-1-1V2a1 1 0 0 1 1-1zM2 0a2 2 0 0 0-2 2v12a2 2 0 0 0 2 2h12a2 2 0 0 0 2-2V2a2 2 0 0 0-2-2zM5.5 12a1.5 1.5 0 1 1-3 0 1.5 1.5 0 0 1 3 0m-3-8.5a1 1 0 0 1 1-1c5.523 0 10 4.477 10 10a1 1 0 1 1-2 0 8 8 0 0 0-8-8 1 1 0 0 1-1-1m0 4a1 1 0 0 1 1-1 6 6 0 0 1 6 6 1 1 0 1 1-2 0 4 4 0 0 0-4-4 1 1 0 0 1-1-1"/>
  <path id="share" fill="currentColor" d="M11 2.5a2.5 2.5 0 1 1 .603 1.628l-6.718 3.12a2.5 2.5 0 0 1 0 1.504l6.718 3.12a2.5 2.5 0 1 1-.488.876l-6.718-3.12a2.5 2.5 0 1 1 0-3.256l6.718-3.12A2.5 2.5 0 0 1 11 2.5"/>
</svg>